<?xml version="1.0" encoding="UTF-8"?>
<!DOCTYPE svg PUBLIC "-//W3C//DTD SVG 1.1//EN" "http://www.w3.org/Graphics/SVG/1.1/DTD/svg11.dtd">
<!-- Creator: CorelDRAW 2018 (64 Bit) -->
<svg xmlns="http://www.w3.org/2000/svg" xml:space="preserve" width="5.51181in" height="1.37795in" version="1.1" style="shape-rendering:geometricPrecision; text-rendering:geometricPrecision; image-rendering:optimizeQuality; fill-rule:evenodd; clip-rule:evenodd"
viewBox="0 0 5511.81 1377.95"
 xmlns:xlink="http://www.w3.org/1999/xlink">
 <defs>
  <style type="text/css">
   <![CDATA[
    .fil0 {fill:#FEFEFE;fill-rule:nonzero}
    .fil1 {fill:#848688;fill-rule:nonzero}
   ]]>
  </style>
 </defs>
 <g id="Capa_x0020_1">
  <metadata id="CorelCorpID_0Corel-Layer"/>
  <g id="_3104092714688">
   <g id="_2486737445696">
    <path class="fil0" d="M1601.04 1251.53l0 -1159.85 242.74 0c44.17,0 83.89,17.57 112.83,46.19 29.04,28.71 47.19,68.53 48.1,112.86l0.06 0.3 0 856.64 -0.06 0.3c-0.91,44.32 -19.07,84.16 -48.1,112.86 -28.94,28.61 -68.66,46.19 -112.83,46.19l-242.74 0 0 -15.5zm887.43 -641.98l-63.28 268.67c-30.42,129.69 -61.07,259.22 -91.88,388.81l-130.1 0 270.26 -1152.32 30.13 0 181.89 775.49 -131.48 0 -65.54 -280.65 -0 -0zm123 438.08l110.58 0 51.85 219.41 -130.85 0 -51.07 -219.41 19.49 0zm-1494.27 -438.08l-63.28 268.67c-30.42,129.69 -61.07,259.22 -91.88,388.81l-130.1 0 270.26 -1152.32 30.13 0 181.89 775.49 -131.48 0 -65.54 -280.65 0 -0zm123 438.08l110.59 0 51.84 219.41 -130.85 0 -51.07 -219.41 19.49 0zm-755.4 50.23l0 -1006.18 85.79 0c20.12,0 34.64,6.7 44.76,16.46 13.16,12.71 18.15,30.21 18.15,44.8l0 964.54c0,43.42 -17.23,82.81 -45.33,111.56 -24.76,25.33 -57.96,42.4 -95.26,46.7l0 2.72 -89.06 0c-44.16,0 -83.44,-17.97 -111.8,-46.98 -28.55,-29.2 -45.93,-69.59 -45.93,-114.01l0 -22.89c0,-19.58 4.02,-34.93 10.22,-46.73 7.98,-15.17 19.54,-24.42 31.24,-29.34 11.02,-6.1 53.15,-24.84 81.83,-37.57l-0.02 -0.04 22.15 -10.49 0 127.43c0,12.93 5.19,24.59 13.59,32.98l0.06 0.06c8.4,8.4 20.06,13.59 32.98,13.59 12.93,0 24.59,-5.19 32.98,-13.59l0.06 -0.06c8.4,-8.4 13.59,-20.05 13.59,-32.98l0.01 0.02zm1361.47 10.45c7.02,-6.83 11.43,-17.61 11.43,-33.33l0 -791.24c0,-14.94 -4.4,-25.28 -11.39,-31.9 -8.45,-8.01 -21.32,-11.46 -35.24,-11.46l-61.34 0 0 879.59 61.34 0c13.91,0 26.76,-3.46 35.2,-11.67z"/>
    <path class="fil1" d="M5252.84 1064l-102.03 130.82 -0.13 -0.05 -61.25 78.79 -69.94 0 88.73 -113.03 -88.73 -113.03 69.94 0 53.39 68.68 53.62 -68.68 69.26 0 -12.85 16.48 -0.01 0.01zm-1308.33 129.04c2,-4.67 3.04,-9.77 3.04,-15.27l0 -10.22 54.62 0 0 10.22c0,13.19 -2.34,25.55 -7.09,37 -4.69,11.28 -11.7,21.59 -21.1,30.86l0.02 0.02c-9.24,9.24 -19.62,16.17 -31,20.86 -11.49,4.72 -23.84,7.07 -36.88,7.07 -13.04,0 -25.29,-2.34 -36.7,-7.05 -11.35,-4.68 -21.69,-11.63 -30.93,-20.87 -9.24,-9.24 -16.17,-19.61 -20.85,-31 -4.73,-11.5 -7.07,-23.85 -7.07,-36.88l0 -130.25 54.62 0 0 130.25c0,5.76 0.98,11.06 2.91,15.82 1.91,4.7 4.83,9.02 8.75,12.93l0.07 0.12c3.96,4.06 8.36,7.07 13.12,9.04 4.85,2.02 10.24,3 16.07,3 5.7,0 10.93,-1.01 15.68,-3 4.79,-2 9.22,-5.06 13.33,-9.17 4.17,-4.17 7.32,-8.67 9.39,-13.48l-0.01 0zm13.26 -145.52l44.41 0 0 87.15 -54.62 0 0 -87.15 10.22 0zm-968.05 3l37.22 36.94 0 141.46 -3 7.19 -34.18 34.43 -17.45 -7.19 0 -230.1 17.4 17.27 0 0zm307.51 107.41l0 -110.39 54.62 0 0 238.75 -136.73 -122.96 0 23.29 -54.62 0 0 -151.8 136.73 123.11zm360.32 -60.27c3.98,5.87 7.47,12.24 10.57,19.16l0.04 0.08c3.03,6.9 5.24,13.96 6.68,21.18 1.45,7.26 2.16,14.74 2.16,22.46 0,7.72 -0.71,15.21 -2.16,22.46 -1.44,7.23 -3.66,14.28 -6.68,21.19l-0.04 0.08c-3.06,6.83 -6.56,13.18 -10.54,19.11 -4.03,5.99 -8.52,11.55 -13.56,16.73l-0.08 0.12c-5.03,5.02 -10.64,9.63 -16.8,13.76 -6.02,4.04 -12.48,7.56 -19.34,10.5 -6.81,2.97 -13.93,5.24 -21.32,6.76 -7.37,1.53 -14.9,2.31 -22.51,2.31l-92.87 0 54.47 -54.88 38.41 0c4.11,0 8.06,-0.37 11.8,-1.09 3.81,-0.74 7.53,-1.84 11.1,-3.29 3.52,-1.55 6.89,-3.39 10.05,-5.54 3,-2.05 5.78,-4.37 8.29,-6.98 2.69,-2.8 5.08,-5.75 7.18,-8.85 2.09,-3.13 3.93,-6.46 5.48,-10 3.02,-7.12 4.52,-14.52 4.52,-22.4 0,-4.04 -0.37,-7.87 -1.11,-11.48 -0.76,-3.71 -1.89,-7.34 -3.39,-10.92 -1.54,-3.49 -3.36,-6.8 -5.48,-9.92 -2.08,-3.05 -4.51,-5.97 -7.32,-8.77 -2.7,-2.7 -5.64,-5.15 -8.75,-7.27 -3.07,-2.09 -6.32,-3.91 -9.7,-5.41 -3.57,-1.43 -7.27,-2.54 -11.04,-3.27 -3.72,-0.72 -7.61,-1.09 -11.6,-1.09l-38.4 0 -54.47 -54.88 92.87 0c7.7,0 15.2,0.79 22.57,2.33 7.3,1.52 14.36,3.78 21.26,6.73l0.08 0.05c6.71,2.93 13.13,6.46 19.16,10.56 6.1,4.13 11.67,8.7 16.64,13.67l-0.02 0.02c5.28,5.28 9.87,10.85 13.88,16.8l-0 -0.03zm605.33 91.43c-1.7,-0.73 -3.67,-1.09 -5.9,-1.09l-51.15 0c-9.61,0 -18.59,-1.74 -26.94,-5.17 -8.4,-3.46 -15.97,-8.58 -22.69,-15.3l-0.08 -0.12c-6.68,-6.83 -11.76,-14.4 -15.19,-22.73 -3.45,-8.39 -5.2,-17.39 -5.2,-27.04 0,-9.56 1.75,-18.45 5.2,-26.73 3.44,-8.26 8.52,-15.76 15.19,-22.58 6.73,-6.88 14.29,-12.07 22.67,-15.57 8.34,-3.49 17.36,-5.24 27.04,-5.24l10.22 0 0 54.88 -10.22 0c-1.28,0 -2.46,0.08 -3.49,0.26 -0.93,0.17 -1.81,0.4 -2.63,0.74l-0.28 0.08c-0.86,0.33 -1.67,0.76 -2.47,1.3l0.02 0.02c-0.79,0.53 -1.59,1.22 -2.44,2.07 -0.73,0.73 -1.31,1.43 -1.75,2.09l0.03 0.02c-0.59,0.89 -1.08,1.84 -1.48,2.8 -0.35,0.84 -0.59,1.69 -0.75,2.53 -0.17,0.94 -0.25,2.07 -0.25,3.33 0,2.34 0.35,4.39 1.06,6.17 0.69,1.77 1.78,3.43 3.28,5.01 1.61,1.57 3.26,2.73 4.99,3.46 1.72,0.72 3.76,1.09 6.17,1.09l51.15 0c9.61,0 18.6,1.74 26.94,5.17 8.4,3.46 15.97,8.59 22.69,15.3 13.81,13.81 20.73,30.36 20.73,49.63 0,9.55 -1.75,18.5 -5.24,26.85 -3.47,8.3 -8.64,15.89 -15.5,22.74l0 0.04c-6.72,6.71 -14.29,11.84 -22.69,15.3 -8.33,3.44 -17.32,5.18 -26.94,5.18l-10.22 0 0 -54.88 10.22 0c1.29,0 2.46,-0.08 3.49,-0.25 0.94,-0.17 1.82,-0.41 2.62,-0.74l0.24 -0.08c0.96,-0.37 1.91,-0.85 2.83,-1.43 0.76,-0.48 1.46,-1.05 2.09,-1.69 0.69,-0.69 1.3,-1.41 1.81,-2.17l0.02 0.01c0.54,-0.81 0.96,-1.62 1.3,-2.48l0.08 -0.28c0.41,-0.97 0.73,-1.98 0.94,-3.02 0.2,-0.94 0.3,-1.97 0.3,-3.09 0,-2.02 -0.39,-3.87 -1.14,-5.57 -0.83,-1.89 -2.09,-3.68 -3.7,-5.38 -1.59,-1.55 -3.24,-2.7 -4.98,-3.45l0.01 0zm198.01 -96.89l0 -44.66 123.24 0 0 54.88 -68.37 0 0 171.17 -54.88 0 0 -181.4 0 0.01zm432.38 57.39c-2.31,7.52 -5.82,14.59 -10.56,21.26 -4.5,6.5 -9.61,12.11 -15.33,16.8 -2.81,2.31 -5.75,4.39 -8.84,6.24l45.54 79.7 -62.78 0 -71.52 -123.61 48.33 0.4 0 -0.04c3.28,0 6.26,-0.56 8.97,-1.69 2.79,-1.18 5.36,-2.95 7.7,-5.3l0.15 -0.15c2.44,-2.35 4.24,-4.91 5.38,-7.67 1.17,-2.77 1.74,-5.91 1.74,-9.41 0,-3.29 -0.56,-6.26 -1.69,-8.92 -1.17,-2.72 -2.97,-5.26 -5.43,-7.63l-0.15 -0.17c-2.37,-2.37 -4.93,-4.13 -7.67,-5.28 -2.71,-1.14 -5.72,-1.72 -9,-1.72l-72.81 0 -6.88 -6.89 -1.6 -2.07 -26.63 -45.92 107.92 0c10.72,0 20.77,1.94 30.11,5.82 9.34,3.87 17.81,9.61 25.43,17.22l0.04 0.07c7.62,7.76 13.35,16.23 17.19,25.46 3.88,9.31 5.81,19.29 5.81,30 0,8.14 -1.12,15.96 -3.43,23.46l0.02 0.04z"/>
   </g>
  </g>
 </g>
</svg>
